# xmcd
#
# Track frame offsets:
#	150
#	18781
#	39035
#	56117
#	70107
#	89209
#	105087
#	116785
#	132024
#	150017
#	170237
#	189056
#	198223
#
# Disc length: 2841 seconds
#
# Revision: 0
# Processed by: cddbd v1.5.2PL0 Copyright (c) Steve Scherf et al.
# Submitted via: dBpowerAMP V4.0
#
DISCID=980b170d
DTITLE=Richard Lindgren - Salvation Hardcore
DYEAR=1900
DGENRE=Country
TTITLE0=Song of Calamity
TTITLE1=Portion of love
TTITLE2=Cold heart, cruel world
TTITLE3=Bad news
TTITLE4=Mezcal Mae
TTITLE5=Goodbye Rosie
TTITLE6=When my days are done
TTITLE7=Tell Louise
TTITLE8=One step behind
TTITLE9=Five pints and a wink from Gwendolyn
TTITLE10=After my shadow is gone
TTITLE11=Goner
TTITLE12=Take tomorrow
EXTD=
EXTT0=
EXTT1=
EXTT2=
EXTT3=
EXTT4=
EXTT5=
EXTT6=
EXTT7=
EXTT8=
EXTT9=
EXTT10=
EXTT11=
EXTT12=
PLAYORDER=
